<svg id="Layer_1" data-name="Layer 1" xmlns="http://www.w3.org/2000/svg" viewBox="0 0 59.22 44"><defs><style>.cls-1{fill:none;}</style></defs><title>icon</title><path d="M21.27,43.76H4.15a2.82,2.82,0,0,1-2.82-2.82V3.06A2.82,2.82,0,0,1,4.15.24H21.27a2.81,2.81,0,0,1,2.81,2.82V40.94A2.81,2.81,0,0,1,21.27,43.76ZM4.15,1.92A1.14,1.14,0,0,0,3,3.06V40.94a1.14,1.14,0,0,0,1.14,1.14H21.27a1.14,1.14,0,0,0,1.14-1.14V3.06a1.14,1.14,0,0,0-1.14-1.14Z"/><rect x="2.17" y="7.27" width="21.08" height="1.67"/><rect x="2.17" y="13.93" width="21.08" height="1.67"/><rect x="2.17" y="38.16" width="21.08" height="1.67"/><path d="M12.71,30.47a2.71,2.71,0,1,1,2.71-2.71A2.71,2.71,0,0,1,12.71,30.47Zm0-3.75a1,1,0,1,0,0,2.07,1,1,0,0,0,0-2.07Z"/><path d="M12.71,36.22A2.18,2.18,0,1,1,14.89,34,2.19,2.19,0,0,1,12.71,36.22Zm0-2.69a.51.51,0,0,0-.51.51.5.5,0,0,0,.51.5.5.5,0,0,0,.5-.5A.5.5,0,0,0,12.71,33.53Z"/><path class="cls-1" d="M40.22,35h-6v3A3,3,0,0,1,34,39h6.37a2.78,2.78,0,0,1-.19-1Z"/><path d="M29.22,35a1,1,0,0,0,0-2H25.78v2Z"/><path d="M56.22,3H25.78V5H56.22a1,1,0,0,1,1,1V32a1,1,0,0,1-1,1h-23a1,1,0,0,0-1,1v4a1,1,0,0,1-1,1h-1a1,1,0,0,0,0,2h14a1,1,0,0,0,0-2h-1a1,1,0,0,1-1-1V35h14a3,3,0,0,0,3-3V6A3,3,0,0,0,56.22,3ZM34,39a3,3,0,0,0,.18-1V35h6v3a2.78,2.78,0,0,0,.19,1Z"/></svg>