<svg id="Layer_1" data-name="Layer 1" xmlns="http://www.w3.org/2000/svg" viewBox="0 0 22.75 43.52"><title>icon</title><path d="M19.94,43.52H2.81A2.82,2.82,0,0,1,0,40.7V2.81A2.81,2.81,0,0,1,2.81,0H19.94a2.81,2.81,0,0,1,2.81,2.81V40.7A2.82,2.82,0,0,1,19.94,43.52ZM2.81,1.67A1.15,1.15,0,0,0,1.67,2.81V40.7a1.15,1.15,0,0,0,1.14,1.14H19.94a1.15,1.15,0,0,0,1.14-1.14V2.81a1.15,1.15,0,0,0-1.14-1.14Z"/><rect x="0.84" y="7.03" width="21.08" height="1.67"/><rect x="0.84" y="13.69" width="21.08" height="1.67"/><rect x="0.84" y="37.92" width="21.08" height="1.67"/><path d="M11.37,30.23a2.71,2.71,0,1,1,2.71-2.71A2.71,2.71,0,0,1,11.37,30.23Zm0-3.75a1,1,0,1,0,1,1A1,1,0,0,0,11.37,26.48Z"/><path d="M11.37,36a2.19,2.19,0,1,1,2.19-2.18A2.19,2.19,0,0,1,11.37,36Zm0-2.69a.51.51,0,1,0,.51.51A.51.51,0,0,0,11.37,33.29Z"/></svg>