<svg id="Layer_1" data-name="Layer 1" xmlns="http://www.w3.org/2000/svg" viewBox="0 0 32.72 24.37"><title>icon</title><path d="M30.3,11.6H2.42A2.43,2.43,0,0,1,0,9.18V2.42A2.43,2.43,0,0,1,2.42,0H30.3a2.43,2.43,0,0,1,2.42,2.42V9.18A2.43,2.43,0,0,1,30.3,11.6ZM2.42,1.67a.76.76,0,0,0-.75.75V9.18a.75.75,0,0,0,.75.74H30.3A.74.74,0,0,0,31,9.18V2.42a.75.75,0,0,0-.74-.75Z"/><path d="M19.93,6.64H5.17A.84.84,0,0,1,5.17,5H19.93a.84.84,0,0,1,0,1.68Z"/><circle cx="23.72" cy="5.8" r="0.87"/><circle cx="27.31" cy="5.8" r="0.87"/><path d="M30.3,24.37H2.42A2.42,2.42,0,0,1,0,22V15.2a2.42,2.42,0,0,1,2.42-2.42H30.3a2.42,2.42,0,0,1,2.42,2.42V22A2.42,2.42,0,0,1,30.3,24.37ZM2.42,14.45a.75.75,0,0,0-.75.75V22a.75.75,0,0,0,.75.75H30.3A.74.74,0,0,0,31,22V15.2a.74.74,0,0,0-.74-.75Z"/><path d="M19.93,19.41H5.17a.84.84,0,1,1,0-1.67H19.93a.84.84,0,1,1,0,1.67Z"/><circle cx="23.72" cy="18.57" r="0.87"/><circle cx="27.31" cy="18.57" r="0.87"/></svg>