<svg id="Layer_1" data-name="Layer 1" xmlns="http://www.w3.org/2000/svg" viewBox="0 0 32.56 29.28"><title>ikony2</title><path d="M16.37,29.28c-1.16-1.13-2.28-2.2-3.38-3.3-3.43-3.45-6.88-6.9-10.27-10.39A8.72,8.72,0,0,1,.49,6.35,8.62,8.62,0,0,1,7.7.15a8.73,8.73,0,0,1,8.28,3l.31.37.28-.32A8.71,8.71,0,0,1,25.77.34a8.66,8.66,0,0,1,6.61,7.13,8.74,8.74,0,0,1-2.56,8.17Q23.3,22.26,16.75,28.85C16.61,29,16.49,29.15,16.37,29.28ZM16.23,5.94s-.08-.15-.14-.27A7.74,7.74,0,0,0,8,1.4,7.48,7.48,0,0,0,1.75,6.67a7.45,7.45,0,0,0,1.87,8C7.71,18.84,11.87,23,16,27.16a4,4,0,0,0,.3.28l.19-.18Q22.76,20.93,29,14.6A7.37,7.37,0,0,0,31.2,8.38a7.41,7.41,0,0,0-5.05-6.56,7.37,7.37,0,0,0-8.09,1.74A20.31,20.31,0,0,0,16.23,5.94Z"/></svg>