<svg id="Layer_1" data-name="Layer 1" xmlns="http://www.w3.org/2000/svg" viewBox="0 0 28.12 23.21"><defs><style>.cls-1{fill:#fff;}</style></defs><title>ikony2</title><path class="cls-1" d="M17.74,15.85H.56A.56.56,0,0,1,0,15.29V2A2,2,0,0,1,2,0h14.3a2,2,0,0,1,2,2V15.29A.56.56,0,0,1,17.74,15.85ZM1.12,14.72H17.18V2a.91.91,0,0,0-.91-.91H2A.85.85,0,0,0,1.12,2Z"/><path class="cls-1" d="M26.82,20.76H25.1a.57.57,0,0,1-.56-.57,1.89,1.89,0,0,0-3.78,0,.58.58,0,0,1-.57.57H17.74a.57.57,0,0,1-.56-.57V7.92a.56.56,0,0,1,.56-.56h4.11a2.33,2.33,0,0,1,1.64.78l4,5a3,3,0,0,1,.59,1.66v4.67A1.31,1.31,0,0,1,26.82,20.76Zm-1.16-.57h0Zm-.05-.56h1.21a.18.18,0,0,0,.17-.17V14.79a1.94,1.94,0,0,0-.33-.95l-4.05-5a1.19,1.19,0,0,0-.76-.36H18.3V19.63h1.38a3,3,0,0,1,5.93,0Z"/><path class="cls-1" d="M27.56,15.35H21a1.41,1.41,0,0,1-1.41-1.41V11.22A1.41,1.41,0,0,1,21,9.82h3.47a.57.57,0,0,1,.43.2l3,3.65a.57.57,0,0,1,.13.36v.75A.56.56,0,0,1,27.56,15.35ZM21,10.94a.28.28,0,0,0-.28.28v2.72a.27.27,0,0,0,.28.28H27l-2.75-3.28Z"/><path class="cls-1" d="M17.74,20.76H8.17a.57.57,0,0,1-.56-.57,1.9,1.9,0,0,0-3.79,0,.57.57,0,0,1-.56.57H2a2,2,0,0,1-2-2V15.29a.57.57,0,0,1,.56-.57H17.74a.57.57,0,0,1,.56.57v4.9A.57.57,0,0,1,17.74,20.76ZM8.68,19.63h8.5V15.85H1.12v2.87a.91.91,0,0,0,.91.91h.72a3,3,0,0,1,5.93,0Z"/><path class="cls-1" d="M5.72,23.21a3,3,0,1,1,3-3A3,3,0,0,1,5.72,23.21Zm0-4.91a1.9,1.9,0,1,0,1.89,1.89A1.9,1.9,0,0,0,5.72,18.3Z"/><path class="cls-1" d="M22.65,23.21a3,3,0,1,1,3-3A3,3,0,0,1,22.65,23.21Zm0-4.91a1.9,1.9,0,1,0,1.89,1.89A1.89,1.89,0,0,0,22.65,18.3Z"/></svg>