<svg id="Layer_1" data-name="Layer 1" xmlns="http://www.w3.org/2000/svg" viewBox="0 0 23.67 23.67"><defs><style>.cls-1{fill:#fff;}</style></defs><title>ikony2</title><path class="cls-1" d="M11.83,0A11.84,11.84,0,1,0,23.67,11.83,11.85,11.85,0,0,0,11.83,0Zm0,22.19A10.36,10.36,0,1,1,22.19,11.83,10.37,10.37,0,0,1,11.83,22.19Z"/><path class="cls-1" d="M11.83,3a8.88,8.88,0,1,0,8.88,8.87A8.88,8.88,0,0,0,11.83,3Zm7.36,9.61a7.36,7.36,0,0,1-1.32,3.52L16.79,15l-1,1,1.15,1.16a7.4,7.4,0,0,1-4.33,2V17H11.09v2.18a7.37,7.37,0,0,1-4.32-2l1.15-1.16-1-1L5.79,16.09a7.35,7.35,0,0,1-1.31-3.52H6.66V11.09H4.48A7.27,7.27,0,0,1,5.79,7.58L6.87,8.66l1-1L6.77,6.46a7.31,7.31,0,0,1,4.32-2V6.66h1.48V4.48a7.34,7.34,0,0,1,4.33,2L15.75,7.61l1,1,1.08-1.08a7.29,7.29,0,0,1,1.32,3.51H17v1.48Z"/><path class="cls-1" d="M12.57,8.14H11.09v3.69a.71.71,0,0,0,.3.59l3,2.22.89-1.18-2.67-2Z"/></svg>