<svg id="Layer_1" data-name="Layer 1" xmlns="http://www.w3.org/2000/svg" viewBox="0 0 25.89 24.36"><defs><style>.cls-1{fill:#fff;}</style></defs><title>ikony2</title><path class="cls-1" d="M16.43,23.55H4.93a.88.88,0,1,1,0-1.75h11.5a6.78,6.78,0,0,0,0-13.56H1.64a.88.88,0,1,1,0-1.75H16.43a8.53,8.53,0,0,1,0,17.06Z"/><path class="cls-1" d="M5.26,13.85a.87.87,0,0,1-.73-.4L.91,7.89a.86.86,0,0,1,0-.95L4.53,1.38A.88.88,0,1,1,6,2.33L2.68,7.41,6,12.49a.87.87,0,0,1-.26,1.21A.85.85,0,0,1,5.26,13.85Z"/></svg>