<svg id="Layer_1" data-name="Layer 1" xmlns="http://www.w3.org/2000/svg" viewBox="0 0 23.92 23.92"><defs><style>.cls-1{fill:#fff;}</style></defs><title>ikony2</title><path class="cls-1" d="M4.77,0a4.09,4.09,0,0,1,2,1.48A19.65,19.65,0,0,1,9.53,5.76a5,5,0,0,1,.2.54,1.47,1.47,0,0,1-.64,1.88,16,16,0,0,1-1.42.74L7,9.23a10.08,10.08,0,0,0,.52,1,17.17,17.17,0,0,0,5.24,5.52c.53.33,1.06.66,1.6.95.29.17.31.13.45-.18.25-.52.49-1,.76-1.55a2.31,2.31,0,0,1,.46-.58,1.45,1.45,0,0,1,1.72-.19,21.52,21.52,0,0,1,2.27,1.22,15.85,15.85,0,0,1,2.86,2.17,3.17,3.17,0,0,1,1,1.53v.23a3.45,3.45,0,0,1-1,1.7c-.4.38-.81.75-1.24,1.09a8.34,8.34,0,0,1-3.19,1.63l-.45.11H17.1l-.49-.12a12.85,12.85,0,0,1-3.83-1.68,33.29,33.29,0,0,1-5.17-4,33.24,33.24,0,0,1-5.17-6,16.39,16.39,0,0,1-2-3.86C.24,7.8.13,7.31,0,6.82v-1c.05-.21.1-.42.16-.62A8.59,8.59,0,0,1,1.65,2.34,5.68,5.68,0,0,1,4.49,0Zm12.9,22.5a4.15,4.15,0,0,0,.56-.1,8.21,8.21,0,0,0,4-2.75c.26-.3.24-.32,0-.65a2.2,2.2,0,0,0-.2-.23A16.39,16.39,0,0,0,19,16.46c-.57-.34-1.17-.61-1.76-.91-.16-.08-.27,0-.36.14-.15.33-.32.65-.49,1a9.56,9.56,0,0,1-.53,1,1.21,1.21,0,0,1-1.51.55,5,5,0,0,1-1.07-.44,18.34,18.34,0,0,1-6.39-6A12.93,12.93,0,0,1,5.79,9.9a1.4,1.4,0,0,1,.76-2l.23-.11,1.44-.71c.16-.08.23-.18.14-.36s-.13-.33-.21-.49A15.36,15.36,0,0,0,6.54,3.58,11.17,11.17,0,0,0,4.9,1.65c-.26-.21-.33-.23-.59,0A8.68,8.68,0,0,0,1.7,5.09a3.38,3.38,0,0,0,0,2.52,14.38,14.38,0,0,0,1.44,3,33.87,33.87,0,0,0,8.12,8.76A21.2,21.2,0,0,0,15.53,22,6.88,6.88,0,0,0,17.67,22.5Z"/></svg>