<svg id="Layer_1" data-name="Layer 1" xmlns="http://www.w3.org/2000/svg" viewBox="0 0 23.16 28.77"><defs><style>.cls-1{fill:#fff;}</style></defs><title>ikony2</title><path class="cls-1" d="M11.58,28.25l-.4-.37C10.74,27.46.38,17.63.38,11.58a11.21,11.21,0,1,1,22.41,0c0,6-10.37,15.88-10.81,16.3Zm0-26.71a10.05,10.05,0,0,0-10,10c0,4.92,8.13,13.18,10,15.06,1.92-1.88,10-10.14,10-15.06A10,10,0,0,0,11.58,1.54Z"/><path class="cls-1" d="M11.58,28.77l-.66-.62C9.81,27.09,0,17.66,0,11.58a11.58,11.58,0,0,1,23.16,0c0,6.2-10.48,16.15-10.92,16.57Zm0-28A10.84,10.84,0,0,0,.75,11.58c0,5.86,10.25,15.61,10.69,16l.14.14.14-.14c.44-.41,10.69-10.14,10.69-16A10.84,10.84,0,0,0,11.58.75Zm0,26.42-.26-.26C8.94,24.57,1.17,16.56,1.17,11.58a10.42,10.42,0,0,1,20.83,0c0,5-7.77,13-10.16,15.33Zm0-25.25a9.67,9.67,0,0,0-9.66,9.66c0,4.6,7.54,12.42,9.66,14.53,2.12-2.11,9.67-9.94,9.67-14.53A9.68,9.68,0,0,0,11.58,1.92Z"/><path class="cls-1" d="M11.58,17.48a6.74,6.74,0,1,1,6.74-6.74A6.76,6.76,0,0,1,11.58,17.48Zm0-12.31a5.57,5.57,0,1,0,5.57,5.57A5.58,5.58,0,0,0,11.58,5.17Z"/><path class="cls-1" d="M11.58,17.85a7.11,7.11,0,1,1,7.11-7.11A7.12,7.12,0,0,1,11.58,17.85Zm0-13.47a6.36,6.36,0,1,0,6.36,6.36A6.36,6.36,0,0,0,11.58,4.38Zm0,12.31a6,6,0,1,1,6-6A5.95,5.95,0,0,1,11.58,16.69Zm0-11.15a5.2,5.2,0,1,0,5.2,5.2A5.2,5.2,0,0,0,11.58,5.54Z"/></svg>