<svg id="Layer_1" data-name="Layer 1" xmlns="http://www.w3.org/2000/svg" viewBox="0 0 20.77 26.22"><defs><style>.cls-1{fill:none;}.cls-2{fill:#fff;}</style></defs><title>ikony2</title><path class="cls-1" d="M2.22,22.63A1.36,1.36,0,0,0,3.58,24H17.19a1.36,1.36,0,0,0,1.36-1.36V13.11H2.22Z"/><path class="cls-1" d="M15.83,7.66a5.46,5.46,0,0,0-4.35-5.33,5.51,5.51,0,0,0-2.19,0A5.46,5.46,0,0,0,4.94,7.66v2.73H15.83Z"/><path class="cls-2" d="M10.39,20.77a.86.86,0,0,0,.86-.86V17.19a.86.86,0,1,0-1.72,0v2.72A.85.85,0,0,0,10.39,20.77Z"/><path class="cls-2" d="M19.91,10.89H18.05V7.66a7.67,7.67,0,0,0-15.33,0v3.23H.86a.86.86,0,0,0-.86.86V22.63a3.59,3.59,0,0,0,3.58,3.59H17.19a3.58,3.58,0,0,0,3.58-3.59V11.75A.85.85,0,0,0,19.91,10.89Zm-15.47-.5V7.66a5.95,5.95,0,0,1,11.89,0v3.23H4.44Zm14.61,2.72v9.52a1.86,1.86,0,0,1-1.86,1.86H3.58a1.86,1.86,0,0,1-1.86-1.86v-10H19.05Z"/></svg>