<svg id="Layer_1" data-name="Layer 1" xmlns="http://www.w3.org/2000/svg" viewBox="0 0 20.45 30.53"><defs><style>.cls-1{fill:#fff;}</style></defs><title>ikony2</title><path class="cls-1" d="M0,9.58c.15-.76.24-1.53.45-2.27A10.32,10.32,0,0,1,11,0a10.31,10.31,0,0,1,9.37,8.71,10,10,0,0,1-3.21,9.05,1.24,1.24,0,0,0-.44,1q0,5.2,0,10.41v1.33l-1.1-.6C14,29,12.34,28,10.72,27a.79.79,0,0,0-1,0C8,28.1,6.2,29.13,4.41,30.18l-.63.35V28.91c0-3.41,0-6.83,0-10.24a1,1,0,0,0-.35-.81A10.12,10.12,0,0,1,.09,11.29,2.22,2.22,0,0,0,0,10.92Zm10.49,9.51a8.83,8.83,0,0,0,8.6-9.28,8.86,8.86,0,1,0-8.6,9.28Zm-5.32.06v9c1.57-.93,3.09-1.8,4.59-2.72a.81.81,0,0,1,1,0c1.08.68,2.19,1.31,3.29,2l1.3.75v-9A10.33,10.33,0,0,1,5.17,19.15Z"/><path class="cls-1" d="M6.91,15.82a.46.46,0,0,1-.29-.1.5.5,0,0,1-.2-.48L7,11.81,4.52,9.38a.49.49,0,0,1-.13-.51.5.5,0,0,1,.4-.34L8.24,8,9.78,4.91a.49.49,0,0,1,.44-.28h0a.49.49,0,0,1,.45.28L12.21,8l3.44.5a.5.5,0,0,1,.41.34.49.49,0,0,1-.13.51l-2.49,2.43L14,15.24a.5.5,0,0,1-.2.48.49.49,0,0,1-.53,0l-3.08-1.62L7.15,15.76A.53.53,0,0,1,6.91,15.82Zm-1-6.45,1.95,1.9a.5.5,0,0,1,.15.45l-.46,2.69L10,13.14a.49.49,0,0,1,.47,0l2.41,1.27-.46-2.69a.53.53,0,0,1,.14-.45l2-1.9L11.81,9a.52.52,0,0,1-.38-.28L10.22,6.26,9,8.7A.54.54,0,0,1,8.64,9Z"/></svg>