<?xml version="1.0" encoding="iso-8859-1"?>
<!-- Generator: Adobe Illustrator 20.0.0, SVG Export Plug-In . SVG Version: 6.00 Build 0)  -->
<svg version="1.1" id="Layer_1" xmlns="http://www.w3.org/2000/svg" xmlns:xlink="http://www.w3.org/1999/xlink" x="0px" y="0px"
	 viewBox="0 0 44 44" style="enable-background:new 0 0 44 44;" xml:space="preserve">
<g>
	<circle cx="18" cy="22" r="1"/>
	<circle cx="14" cy="22" r="1"/>
	<circle cx="18" cy="27" r="1"/>
	<circle cx="14" cy="27" r="1"/>
	<circle cx="10" cy="22" r="1"/>
	<circle cx="6" cy="22" r="1"/>
	<circle cx="10" cy="27" r="1"/>
	<circle cx="30" cy="22" r="1"/>
	<circle cx="26" cy="22" r="1"/>
	<circle cx="30" cy="27" r="1"/>
	<circle cx="26" cy="27" r="1"/>
	<circle cx="38" cy="22" r="1"/>
	<circle cx="34" cy="22" r="1"/>
	<circle cx="38" cy="27" r="1"/>
	<circle cx="34" cy="27" r="1"/>
	<circle cx="22" cy="22" r="1"/>
	<circle cx="22" cy="27" r="1"/>
	<circle cx="6" cy="27" r="1"/>
	<circle cx="10" cy="32" r="1"/>
	<circle cx="38" cy="32" r="1"/>
	<circle cx="34" cy="32" r="1"/>
	<circle cx="6" cy="32" r="1"/>
	<path d="M13,32c0,0.552,0.447,1,1,1h16c0.553,0,1-0.448,1-1s-0.447-1-1-1H14C13.447,31,13,31.448,13,32z"/>
	<path d="M41,16H26c-0.553,0-1,0.448-1,1s0.447,1,1,1h15c0.552,0,1,0.449,1,1v16c0,0.551-0.448,1-1,1H3c-0.552,0-1-0.449-1-1V19
		c0-0.551,0.448-1,1-1h19c0.553,0,1-0.448,1-1v-4c0-0.551,0.448-1,1-1h7c1.654,0,3-1.346,3-3s-1.346-3-3-3H15c-0.553,0-1,0.448-1,1
		s0.447,1,1,1h16c0.552,0,1,0.449,1,1s-0.448,1-1,1h-7c-1.654,0-3,1.346-3,3v3H3c-1.654,0-3,1.346-3,3v16c0,1.654,1.346,3,3,3h38
		c1.654,0,3-1.346,3-3V19C44,17.346,42.654,16,41,16z"/>
</g>
</svg>
