<?xml version="1.0" encoding="iso-8859-1"?>
<!-- Generator: Adobe Illustrator 20.0.0, SVG Export Plug-In . SVG Version: 6.00 Build 0)  -->
<svg version="1.1" id="Layer_1" xmlns="http://www.w3.org/2000/svg" xmlns:xlink="http://www.w3.org/1999/xlink" x="0px" y="0px"
	 viewBox="0 0 44 44" style="enable-background:new 0 0 44 44;" xml:space="preserve">
<g>
	<path d="M43,31H10c-0.552,0-1,0.448-1,1s0.448,1,1,1h32v1c0,0.551-0.448,1-1,1H3c-0.551,0-1-0.449-1-1v-1h4c0.552,0,1-0.448,1-1V10
		c0-0.551,0.449-1,1-1h28c0.551,0,1,0.449,1,1v18c0,0.552,0.448,1,1,1c0.553,0,1-0.448,1-1V10c0-1.654-1.346-3-3-3H8
		c-1.654,0-3,1.346-3,3v21H1c-0.552,0-1,0.448-1,1v2c0,1.654,1.346,3,3,3h38c1.654,0,3-1.346,3-3v-2C44,31.448,43.553,31,43,31z"/>
	<path d="M10,11c-0.552,0-1,0.448-1,1v16c0,0.552,0.448,1,1,1h24c0.552,0,1-0.448,1-1V12c0-0.552-0.448-1-1-1H10z M33,27H11V13h22
		V27z"/>
</g>
</svg>
