<?xml version="1.0" encoding="iso-8859-1"?>
<!-- Generator: Adobe Illustrator 20.0.0, SVG Export Plug-In . SVG Version: 6.00 Build 0)  -->
<svg version="1.1" xmlns="http://www.w3.org/2000/svg" xmlns:xlink="http://www.w3.org/1999/xlink" x="0px" y="0px"
	 viewBox="0 0 44 44" style="enable-background:new 0 0 44 44;" xml:space="preserve">
<g id="Layer_21">
	<g>
		<path d="M10,12c0.552,0,1-0.448,1-1V3c0-0.551,0.449-1,1-1h13.63l6.719,5.759c0.419,0.359,1.051,0.311,1.41-0.108
			s0.311-1.051-0.108-1.41l-7-6C26.47,0.085,26.239,0,26,0H12c-1.654,0-3,1.346-3,3v8C9,11.553,9.448,12,10,12z"/>
		<path d="M28,33c0-0.552-0.448-1-1-1h-7c-0.552,0-1,0.448-1,1s0.448,1,1,1h7C27.552,34,28,33.552,28,33z"/>
		<path d="M14,38h7c0.552,0,1-0.448,1-1s-0.448-1-1-1h-7c-0.552,0-1,0.448-1,1S13.448,38,14,38z"/>
		<path d="M14,34h2c0.552,0,1-0.448,1-1s-0.448-1-1-1h-2c-0.552,0-1,0.448-1,1S13.448,34,14,34z"/>
		<path d="M25,38h5c0.552,0,1-0.448,1-1s-0.448-1-1-1h-5c-0.552,0-1,0.448-1,1S24.448,38,25,38z"/>
		<circle cx="8" cy="21" r="1"/>
		<circle cx="12" cy="21" r="1"/>
		<path d="M39,14h-4v-4c0-0.552-0.448-1-1-1h-7c-0.551,0-1-0.449-1-1V5c0-0.552-0.448-1-1-1s-1,0.448-1,1v3c0,1.654,1.346,3,3,3h6v3
			H5c-1.654,0-3,1.346-3,3v16c0,1.654,1.346,3,3,3c0.552,0,1-0.448,1-1s-0.448-1-1-1c-0.551,0-1-0.449-1-1V17c0-0.551,0.449-1,1-1
			h34c0.551,0,1,0.449,1,1v16c0,0.551-0.449,1-1,1c-0.552,0-1,0.448-1,1s0.448,1,1,1c1.654,0,3-1.346,3-3V17
			C42,15.346,40.654,14,39,14z"/>
		<path d="M37,28H7c-0.552,0-1,0.448-1,1s0.448,1,1,1h1v11c0,1.654,1.346,3,3,3h22c1.654,0,3-1.346,3-3v-8c0-0.552-0.448-1-1-1
			s-1,0.448-1,1v8c0,0.551-0.449,1-1,1H11c-0.551,0-1-0.449-1-1V30h27c0.552,0,1-0.448,1-1S37.552,28,37,28z"/>
	</g>
</g>
<g id="Layer_20">
</g>
<g id="Layer_19">
</g>
<g id="Layer_18">
</g>
<g id="Layer_17">
</g>
<g id="Layer_16">
</g>
<g id="Layer_15">
</g>
<g id="Layer_14">
</g>
<g id="Layer_13">
</g>
<g id="Layer_12">
</g>
<g id="Layer_11">
</g>
<g id="Layer_10">
</g>
<g id="Layer_9">
</g>
<g id="Layer_8">
</g>
<g id="Layer_7">
</g>
<g id="Layer_6">
</g>
<g id="Layer_5">
</g>
<g id="Layer_4">
</g>
<g id="Layer_3">
</g>
<g id="Layer_2">
</g>
</svg>
