<svg id="Design" xmlns="http://www.w3.org/2000/svg" width="48.81157" height="105.0686" viewBox="0 0 48.81157 105.0686"><defs><style>.cls-1{fill:#fff;}</style></defs><title>social bialy</title><path class="cls-1" d="M10.75506,52.94808v50.79777a1.323,1.323,0,0,0,1.32307,1.32275h18.864a1.32276,1.32276,0,0,0,1.32307-1.32275V52.12052H45.941a1.32319,1.32319,0,0,0,1.31857-1.21131l1.315-15.55472A1.32317,1.32317,0,0,0,47.256,33.91967H32.26519V22.88393a4.68307,4.68307,0,0,1,4.68308-4.68308H47.4885a1.32324,1.32324,0,0,0,1.32307-1.32307V1.32307A1.32324,1.32324,0,0,0,47.4885,0H29.67879A18.92374,18.92374,0,0,0,10.75506,18.92372v14.996h-9.432A1.32331,1.32331,0,0,0,0,35.24306V50.79777a1.323,1.323,0,0,0,1.32307,1.32275h9.432Z"/></svg>