<svg id="Design" xmlns="http://www.w3.org/2000/svg" width="109.5979" height="109.59784" viewBox="0 0 109.5979 109.59784"><defs><style>.cls-1{fill:#fff;}</style></defs><title>social bialy</title><path class="cls-1" d="M76.58447,0h-43.571A33.01246,33.01246,0,0,0,0,33.01147V76.58636a33.01242,33.01242,0,0,0,33.01343,33.01148h43.571A33.01242,33.01242,0,0,0,109.5979,76.58636V33.01147A33.01246,33.01246,0,0,0,76.58447,0Zm22.6742,76.58636a22.67333,22.67333,0,0,1-22.6742,22.67231h-43.571A22.67335,22.67335,0,0,1,10.33911,76.58636V33.01147a22.67335,22.67335,0,0,1,22.67432-22.6723h43.571a22.67333,22.67333,0,0,1,22.6742,22.6723Z"/><path class="cls-1" d="M83.63013,20.17773A6.44306,6.44306,0,1,0,90.07324,26.621,6.4432,6.4432,0,0,0,83.63013,20.17773Z"/><path class="cls-1" d="M54.98535,28.44049A27.06574,27.06574,0,1,0,82.05078,55.50623,27.097,27.097,0,0,0,54.98535,28.44049Zm0,44.40338A17.3375,17.3375,0,1,1,72.32227,55.50623,17.35738,17.35738,0,0,1,54.98535,72.84387Z"/></svg>